HIERARCHY
ROOT Hips
{
	OFFSET 228.634003 92.561920 -263.051910
	CHANNELS 6 Xposition Yposition Zposition Zrotation Yrotation Xrotation 
	JOINT LeftUpLeg
	{
		OFFSET 0.103458 1.857820 10.548502
		CHANNELS 3 Zrotation Yrotation Xrotation
		JOINT LeftLeg
		{
			OFFSET 43.500000 -0.000023 -0.000011
			CHANNELS 3 Zrotation Yrotation Xrotation
			JOINT LeftFoot
			{
				OFFSET 42.372192 0.000038 0.000002
				CHANNELS 3 Zrotation Yrotation Xrotation
				JOINT LeftToe
				{
					OFFSET 17.299992 -0.000004 0.000006
					CHANNELS 3 Zrotation Yrotation Xrotation
					End Site
					{
						OFFSET 0.000000 0.000000 0.000000
					}
				}
			}
		}
	}
	JOINT RightUpLeg
	{
		OFFSET 0.103461 1.857814 -10.548508
		CHANNELS 3 Zrotation Yrotation Xrotation
		JOINT RightLeg
		{
			OFFSET 43.500042 -0.000015 0.000008
			CHANNELS 3 Zrotation Yrotation Xrotation
			JOINT RightFoot
			{
				OFFSET 42.372253 0.000008 0.000006
				CHANNELS 3 Zrotation Yrotation Xrotation
				JOINT RightToe
				{
					OFFSET 17.299973 -0.000014 0.000011
					CHANNELS 3 Zrotation Yrotation Xrotation
					End Site
					{
						OFFSET 0.000000 0.000000 0.000000
					}
				}
			}
		}
	}
	JOINT Spine
	{
		OFFSET 6.901966 -2.603737 -0.000007
		CHANNELS 3 Zrotation Yrotation Xrotation
		JOINT Spine1
		{
			OFFSET 12.588102 0.000017 0.000001
			CHANNELS 3 Zrotation Yrotation Xrotation
			JOINT Spine2
			{
				OFFSET 12.343197 -0.000013 0.000000
				CHANNELS 3 Zrotation Yrotation Xrotation
				JOINT Neck
				{
					OFFSET 25.832905 -0.000008 0.000000
					CHANNELS 3 Zrotation Yrotation Xrotation
					JOINT Head
					{
						OFFSET 11.766610 0.000009 -0.000002
						CHANNELS 3 Zrotation Yrotation Xrotation
						End Site
						{
							OFFSET 0.000000 0.000000 0.000000
						}
					}
				}
				JOINT LeftShoulder
				{
					OFFSET 19.745903 -1.480377 6.000115
					CHANNELS 3 Zrotation Yrotation Xrotation
					JOINT LeftArm
					{
						OFFSET 11.284125 -0.000014 -0.000024
						CHANNELS 3 Zrotation Yrotation Xrotation
						JOINT LeftForeArm
						{
							OFFSET 33.000046 -0.000012 0.000029
							CHANNELS 3 Zrotation Yrotation Xrotation
							JOINT LeftHand
							{
								OFFSET 25.199989 0.000034 0.000012
								CHANNELS 3 Zrotation Yrotation Xrotation
								End Site
								{
									OFFSET 0.000000 0.000000 0.000000
								}
							}
						}
					}
				}
				JOINT RightShoulder
				{
					OFFSET 19.746098 -1.480362 -6.000071
					CHANNELS 3 Zrotation Yrotation Xrotation
					JOINT RightArm
					{
						OFFSET 11.284137 -0.000006 -0.000008
						CHANNELS 3 Zrotation Yrotation Xrotation
						JOINT RightForeArm
						{
							OFFSET 33.000095 0.000017 0.000000
							CHANNELS 3 Zrotation Yrotation Xrotation
							JOINT RightHand
							{
								OFFSET 25.199778 0.000144 0.000423
								CHANNELS 3 Zrotation Yrotation Xrotation
								End Site
								{
									OFFSET 0.000000 0.000000 0.000000
								}
							}
						}
					}
				}
			}
		}
	}
}
MOTION
Frames: 5
Frame Time: 0.033333
16.560961 86.965569 -403.432495 87.691802 12.360900 82.874210 168.048800 -15.066999 -179.713793 -12.714717 -3.535236 -2.949239 61.299056 -1.597401 -9.245234 21.454550 0.003092 0.000001 -163.960740 8.277698 166.232680 -21.219991 8.412970 5.115632 92.554527 -3.185392 3.639545 21.454557 -0.003113 -0.000018 8.912144 0.895528 -0.249588 7.808919 1.805740 -0.438322 7.490664 1.803207 -0.449220 -0.227410 1.234496 -1.192631 -17.043907 2.543817 -1.932882 -146.784768 -76.210390 -35.419005 8.935817 61.360814 33.728830 -22.923488 -13.583241 1.021006 27.727795 17.924655 60.044050 -144.783386 68.179023 37.726591 -7.532054 -58.393842 -22.169949 -43.129451 19.708581 -1.880385 6.557748 5.075659 -17.440304 
17.724190 86.466728 -400.895386 88.041295 12.743587 82.900233 166.794080 -13.357496 173.634009 -17.767581 -0.634579 2.297291 58.115710 -4.866769 -6.962813 21.454551 0.003096 0.000002 -163.094959 9.166799 168.215716 -23.743355 7.179872 4.104083 93.345791 -2.343811 4.954533 21.454560 -0.003101 -0.000016 8.957972 0.766839 -0.123675 7.902499 1.540243 -0.194799 7.584280 1.539177 -0.204091 0.697450 0.990042 -1.429893 -17.125948 2.260613 -2.129921 -146.427481 -76.436811 -35.775325 4.734882 61.709946 30.947580 -23.119999 -13.349912 1.008877 20.217078 13.082923 52.939113 -146.967011 68.385801 35.466311 -9.704988 -58.279402 -20.874735 -40.541964 19.717445 -1.807901 6.661994 9.127417 -18.221987 
18.911831 86.447807 -398.495300 88.561797 13.325220 81.796146 166.759697 -12.560103 174.747467 -22.251208 -1.603180 1.325004 59.936228 -3.768171 -6.453943 21.454557 0.003106 0.000000 -163.034621 10.648613 169.939546 -26.982078 5.762607 2.621753 91.909341 -1.142587 5.837367 21.454555 -0.003106 -0.000018 9.065126 0.530271 0.136498 8.119168 1.049617 0.309822 7.801014 1.051596 0.303481 1.713956 0.593020 -1.255195 -16.992865 2.377715 -2.065350 -146.410911 -75.772514 -35.815897 -0.233212 61.375226 27.593232 -24.122280 -13.208017 1.014327 12.808401 6.548620 46.162035 -150.333488 69.312077 31.963509 -12.485398 -58.599301 -18.406866 -36.216696 19.291448 -1.668133 8.237603 10.877603 -13.988189 
20.310841 86.421471 -396.050201 89.268100 14.178546 80.343262 167.340946 -11.411609 178.094724 -26.480343 -3.970001 -1.515403 63.733417 -1.415726 -6.570925 21.454550 0.003092 0.000001 -164.250504 12.291892 170.773594 -32.522325 4.147710 1.543234 88.915683 -0.232625 5.785033 21.454558 -0.003096 -0.000017 9.261729 0.221027 0.442024 8.512264 0.408889 0.899067 8.194184 0.414446 0.896587 2.521082 -0.808369 -1.032112 -17.105049 3.330994 -2.410327 -147.277402 -74.764897 -34.965999 -5.871958 60.827554 23.928989 -25.564071 -13.545501 1.058166 7.106332 0.038316 39.006749 -152.831302 70.816597 29.347807 -14.463267 -59.971820 -14.855048 -32.816402 18.918654 -1.565264 10.142320 9.487532 -9.878793 
21.619900 86.699722 -393.821686 90.346314 14.555808 79.232681 168.701165 -9.423288 -178.422218 -27.390862 -6.062185 -4.444207 65.877564 0.818044 -6.811053 21.454553 0.003104 -0.000001 -167.345673 13.541501 171.135499 -39.799676 2.248807 1.230960 83.573307 0.192860 5.222628 21.454555 -0.003116 -0.000017 9.341542 -0.179577 0.731641 8.667673 -0.413448 1.447762 8.349693 -0.404563 1.450248 3.456448 -1.965240 -1.099430 -17.569311 3.981637 -2.902440 -148.882114 -74.109417 -33.346520 -11.816443 60.212407 19.197515 -27.964842 -14.113098 1.135040 5.872279 -4.224419 32.972520 -154.032760 72.234940 28.076602 -14.666112 -62.333153 -10.397454 -32.030845 18.653914 -1.531292 11.345440 6.655779 -9.158564 
